<?xml version="1.0" encoding="UTF-8" standalone="no"?>
<!DOCTYPE svg PUBLIC "-//W3C//DTD SVG 1.1//EN"
 "http://www.w3.org/Graphics/SVG/1.1/DTD/svg11.dtd">
<!-- Generated by graphviz version 2.38.0 (20140413.2041)
 -->
<!-- Title: controllers_diagram Pages: 1 -->
<svg width="636pt" height="488pt"
 viewBox="0.00 0.00 636.03 487.70" xmlns="http://www.w3.org/2000/svg" xmlns:xlink="http://www.w3.org/1999/xlink">
<g id="graph0" class="graph" transform="scale(1 1) rotate(0) translate(178.473 251.5)">
<title>controllers_diagram</title>
<polygon fill="white" stroke="none" points="-178.473,236.202 -178.473,-251.5 457.561,-251.5 457.561,236.202 -178.473,236.202"/>
<!-- _diagram_info -->
<g id="node1" class="node"><title>_diagram_info</title>
<text text-anchor="start" x="182.312" y="-233.1" font-family="Times,serif" font-size="13.00">Controllers diagram</text>
<text text-anchor="start" x="182.312" y="-220.1" font-family="Times,serif" font-size="13.00">Date: Jan 26 2015 &#45; 20:30</text>
<text text-anchor="start" x="182.312" y="-207.1" font-family="Times,serif" font-size="13.00">Migration version: 20150123232739</text>
<text text-anchor="start" x="182.312" y="-194.1" font-family="Times,serif" font-size="13.00">Generated by RailRoady 1.3.0</text>
<text text-anchor="start" x="182.312" y="-181.1" font-family="Times,serif" font-size="13.00">http://railroady.prestonlee.com</text>
</g>
<!-- ApplicationController -->
<g id="node2" class="node"><title>ApplicationController</title>
<path fill="none" stroke="black" d="M-162.473,144.569C-162.473,144.569 -46.8317,144.569 -46.8317,144.569 -40.8317,144.569 -34.8317,138.569 -34.8317,132.569 -34.8317,132.569 -34.8317,52.5692 -34.8317,52.5692 -34.8317,46.5692 -40.8317,40.5692 -46.8317,40.5692 -46.8317,40.5692 -162.473,40.5692 -162.473,40.5692 -168.473,40.5692 -174.473,46.5692 -174.473,52.5692 -174.473,52.5692 -174.473,132.569 -174.473,132.569 -174.473,138.569 -168.473,144.569 -162.473,144.569"/>
<text text-anchor="middle" x="-104.653" y="55.7692" font-family="Times,serif" font-size="14.00">ApplicationController</text>
<polyline fill="none" stroke="black" points="-174.473,62.5692 -34.8317,62.5692 "/>
<text text-anchor="start" x="-166.473" y="77.7692" font-family="Times,serif" font-size="14.00">last_page</text>
<text text-anchor="start" x="-166.473" y="91.7692" font-family="Times,serif" font-size="14.00">redirect_back</text>
<polyline fill="none" stroke="black" points="-174.473,98.5692 -34.8317,98.5692 "/>
<polyline fill="none" stroke="black" points="-174.473,122.569 -34.8317,122.569 "/>
<text text-anchor="start" x="-166.473" y="137.769" font-family="Times,serif" font-size="14.00">_layout</text>
</g>
<!-- PageController -->
<g id="node3" class="node"><title>PageController</title>
<path fill="none" stroke="black" d="M53.4848,-11.7045C53.4848,-11.7045 130.244,-11.7045 130.244,-11.7045 136.244,-11.7045 142.244,-17.7045 142.244,-23.7045 142.244,-23.7045 142.244,-117.704 142.244,-117.704 142.244,-123.704 136.244,-129.704 130.244,-129.704 130.244,-129.704 53.4848,-129.704 53.4848,-129.704 47.4848,-129.704 41.4848,-123.704 41.4848,-117.704 41.4848,-117.704 41.4848,-23.7045 41.4848,-23.7045 41.4848,-17.7045 47.4848,-11.7045 53.4848,-11.7045"/>
<text text-anchor="middle" x="91.8642" y="-114.504" font-family="Times,serif" font-size="14.00">PageController</text>
<polyline fill="none" stroke="black" points="41.4848,-107.704 142.244,-107.704 "/>
<text text-anchor="start" x="49.4848" y="-92.5045" font-family="Times,serif" font-size="14.00">show</text>
<text text-anchor="start" x="49.4848" y="-78.5045" font-family="Times,serif" font-size="14.00">welcome</text>
<polyline fill="none" stroke="black" points="41.4848,-71.7045 142.244,-71.7045 "/>
<polyline fill="none" stroke="black" points="41.4848,-47.7045 142.244,-47.7045 "/>
<text text-anchor="start" x="49.4848" y="-32.5045" font-family="Times,serif" font-size="14.00">_layout</text>
<text text-anchor="start" x="49.4848" y="-18.5045" font-family="Times,serif" font-size="14.00">id</text>
</g>
<!-- ApplicationController&#45;&gt;PageController -->
<g id="edge1" class="edge"><title>ApplicationController&#45;&gt;PageController</title>
<path fill="none" stroke="black" d="M-41.9331,40.4595C-15.0867,18.1544 15.8504,-7.54929 41.2093,-28.6185"/>
</g>
<!-- SessionsController -->
<g id="node4" class="node"><title>SessionsController</title>
<path fill="none" stroke="black" d="M5.63627,231.702C5.63627,231.702 103.416,231.702 103.416,231.702 109.416,231.702 115.416,225.702 115.416,219.702 115.416,219.702 115.416,97.7025 115.416,97.7025 115.416,91.7025 109.416,85.7025 103.416,85.7025 103.416,85.7025 5.63627,85.7025 5.63627,85.7025 -0.36373,85.7025 -6.36373,91.7025 -6.36373,97.7025 -6.36373,97.7025 -6.36373,219.702 -6.36373,219.702 -6.36373,225.702 -0.36373,231.702 5.63627,231.702"/>
<text text-anchor="middle" x="54.5259" y="100.902" font-family="Times,serif" font-size="14.00">SessionsController</text>
<polyline fill="none" stroke="black" points="-6.36373,107.702 115.416,107.702 "/>
<text text-anchor="start" x="1.63627" y="122.902" font-family="Times,serif" font-size="14.00">create</text>
<text text-anchor="start" x="1.63627" y="136.902" font-family="Times,serif" font-size="14.00">destroy</text>
<text text-anchor="start" x="1.63627" y="150.902" font-family="Times,serif" font-size="14.00">new</text>
<polyline fill="none" stroke="black" points="-6.36373,157.702 115.416,157.702 "/>
<polyline fill="none" stroke="black" points="-6.36373,181.702 115.416,181.702 "/>
<text text-anchor="start" x="1.63627" y="196.902" font-family="Times,serif" font-size="14.00">_layout</text>
<text text-anchor="start" x="1.63627" y="210.902" font-family="Times,serif" font-size="14.00">login_params</text>
<text text-anchor="start" x="1.63627" y="224.902" font-family="Times,serif" font-size="14.00">set_up_session</text>
</g>
<!-- ApplicationController&#45;&gt;SessionsController -->
<g id="edge2" class="edge"><title>ApplicationController&#45;&gt;SessionsController</title>
<path fill="none" stroke="black" d="M-34.3712,121.769C-25.0433,125.644 -15.5425,129.591 -6.39081,133.394"/>
</g>
<!-- TweetsController -->
<g id="node5" class="node"><title>TweetsController</title>
<path fill="none" stroke="black" d="M-121.411,-22.6681C-121.411,-22.6681 -32.4158,-22.6681 -32.4158,-22.6681 -26.4158,-22.6681 -20.4158,-28.6681 -20.4158,-34.6681 -20.4158,-34.6681 -20.4158,-212.668 -20.4158,-212.668 -20.4158,-218.668 -26.4158,-224.668 -32.4158,-224.668 -32.4158,-224.668 -121.411,-224.668 -121.411,-224.668 -127.411,-224.668 -133.411,-218.668 -133.411,-212.668 -133.411,-212.668 -133.411,-34.6681 -133.411,-34.6681 -133.411,-28.6681 -127.411,-22.6681 -121.411,-22.6681"/>
<text text-anchor="middle" x="-76.9134" y="-209.468" font-family="Times,serif" font-size="14.00">TweetsController</text>
<polyline fill="none" stroke="black" points="-133.411,-202.668 -20.4158,-202.668 "/>
<text text-anchor="start" x="-125.411" y="-187.468" font-family="Times,serif" font-size="14.00">create</text>
<text text-anchor="start" x="-125.411" y="-173.468" font-family="Times,serif" font-size="14.00">destroy</text>
<text text-anchor="start" x="-125.411" y="-159.468" font-family="Times,serif" font-size="14.00">edit</text>
<text text-anchor="start" x="-125.411" y="-145.468" font-family="Times,serif" font-size="14.00">index</text>
<text text-anchor="start" x="-125.411" y="-131.468" font-family="Times,serif" font-size="14.00">new</text>
<text text-anchor="start" x="-125.411" y="-117.468" font-family="Times,serif" font-size="14.00">show</text>
<text text-anchor="start" x="-125.411" y="-103.468" font-family="Times,serif" font-size="14.00">update</text>
<polyline fill="none" stroke="black" points="-133.411,-96.6681 -20.4158,-96.6681 "/>
<polyline fill="none" stroke="black" points="-133.411,-72.6681 -20.4158,-72.6681 "/>
<text text-anchor="start" x="-125.411" y="-57.4681" font-family="Times,serif" font-size="14.00">_layout</text>
<text text-anchor="start" x="-125.411" y="-43.4681" font-family="Times,serif" font-size="14.00">set_tweet</text>
<text text-anchor="start" x="-125.411" y="-29.4681" font-family="Times,serif" font-size="14.00">tweet_params</text>
</g>
<!-- ApplicationController&#45;&gt;TweetsController -->
<g id="edge3" class="edge"><title>ApplicationController&#45;&gt;TweetsController</title>
<path fill="none" stroke="black" d="M-97.973,40.4998C-95.5363,21.5044 -92.6902,-0.681335 -89.8927,-22.489"/>
</g>
<!-- BrowserTimezoneRails::ApplicationController -->
<g id="node6" class="node"><title>BrowserTimezoneRails::ApplicationController</title>
<path fill="none" stroke="black" d="M186.439,173C186.439,173 441.561,173 441.561,173 447.561,173 453.561,167 453.561,161 453.561,161 453.561,93 453.561,93 453.561,87 447.561,81 441.561,81 441.561,81 186.439,81 186.439,81 180.439,81 174.439,87 174.439,93 174.439,93 174.439,161 174.439,161 174.439,167 180.439,173 186.439,173"/>
<text text-anchor="middle" x="314" y="96.2" font-family="Times,serif" font-size="14.00">BrowserTimezoneRails::ApplicationController</text>
<polyline fill="none" stroke="black" points="174.439,103 453.561,103 "/>
<polyline fill="none" stroke="black" points="174.439,127 453.561,127 "/>
<polyline fill="none" stroke="black" points="174.439,151 453.561,151 "/>
<text text-anchor="start" x="182.439" y="166.2" font-family="Times,serif" font-size="14.00">_layout</text>
</g>
</g>
</svg>
