<?xml version="1.0" encoding="UTF-8" standalone="no"?>
<!DOCTYPE svg PUBLIC "-//W3C//DTD SVG 1.1//EN"
 "http://www.w3.org/Graphics/SVG/1.1/DTD/svg11.dtd">
<!-- Generated by graphviz version 2.38.0 (20140413.2041)
 -->
<!-- Title: models_diagram Pages: 1 -->
<svg width="396pt" height="274pt"
 viewBox="0.00 0.00 396.01 274.00" xmlns="http://www.w3.org/2000/svg" xmlns:xlink="http://www.w3.org/1999/xlink">
<g id="graph0" class="graph" transform="scale(1 1) rotate(0) translate(4 270)">
<title>models_diagram</title>
<polygon fill="white" stroke="none" points="-4,4 -4,-270 392.009,-270 392.009,4 -4,4"/>
<!-- _diagram_info -->
<g id="node1" class="node"><title>_diagram_info</title>
<text text-anchor="start" x="8" y="-251.6" font-family="Times,serif" font-size="13.00">Models diagram</text>
<text text-anchor="start" x="8" y="-238.6" font-family="Times,serif" font-size="13.00">Date: Jan 26 2015 &#45; 20:30</text>
<text text-anchor="start" x="8" y="-225.6" font-family="Times,serif" font-size="13.00">Migration version: 20150123232739</text>
<text text-anchor="start" x="8" y="-212.6" font-family="Times,serif" font-size="13.00">Generated by RailRoady 1.3.0</text>
<text text-anchor="start" x="8" y="-199.6" font-family="Times,serif" font-size="13.00">http://railroady.prestonlee.com</text>
</g>
<!-- Tweet -->
<g id="node2" class="node"><title>Tweet</title>
<path fill="none" stroke="black" d="M252.182,-0.5C252.182,-0.5 361.193,-0.5 361.193,-0.5 367.193,-0.5 373.193,-6.5 373.193,-12.5 373.193,-12.5 373.193,-144.5 373.193,-144.5 373.193,-150.5 367.193,-156.5 361.193,-156.5 361.193,-156.5 252.182,-156.5 252.182,-156.5 246.182,-156.5 240.182,-150.5 240.182,-144.5 240.182,-144.5 240.182,-12.5 240.182,-12.5 240.182,-6.5 246.182,-0.5 252.182,-0.5"/>
<text text-anchor="middle" x="306.688" y="-141.3" font-family="Times,serif" font-size="14.00">Tweet</text>
<polyline fill="none" stroke="black" points="240.182,-134.5 373.193,-134.5 "/>
<text text-anchor="start" x="248.182" y="-119.3" font-family="Times,serif" font-size="14.00">id :integer</text>
<text text-anchor="start" x="248.182" y="-105.3" font-family="Times,serif" font-size="14.00">tweet_id :string</text>
<text text-anchor="start" x="248.182" y="-91.3" font-family="Times,serif" font-size="14.00">content :text</text>
<text text-anchor="start" x="248.182" y="-77.3" font-family="Times,serif" font-size="14.00">date :datetime</text>
<text text-anchor="start" x="248.182" y="-63.3" font-family="Times,serif" font-size="14.00">author :string</text>
<text text-anchor="start" x="248.182" y="-49.3" font-family="Times,serif" font-size="14.00">author_id :string</text>
<text text-anchor="start" x="248.182" y="-35.3" font-family="Times,serif" font-size="14.00">created_at :datetime</text>
<text text-anchor="start" x="248.182" y="-21.3" font-family="Times,serif" font-size="14.00">updated_at :datetime</text>
<text text-anchor="start" x="248.182" y="-7.3" font-family="Times,serif" font-size="14.00">language :string</text>
</g>
<!-- ActiveRecord::Base -->
<g id="node3" class="node"><title>ActiveRecord::Base</title>
<ellipse fill="none" stroke="black" cx="306.688" cy="-229.5" rx="81.1422" ry="18"/>
<text text-anchor="middle" x="306.688" y="-225.3" font-family="Times,serif" font-size="14.00">ActiveRecord::Base</text>
</g>
<!-- ActiveRecord::Base&#45;&gt;Tweet -->
<g id="edge1" class="edge"><title>ActiveRecord::Base&#45;&gt;Tweet</title>
<path fill="none" stroke="black" d="M306.688,-211.408C306.688,-197.649 306.688,-177.26 306.688,-156.605"/>
</g>
</g>
</svg>
