%
M48
M72
T01C0.0236
T02C0.0394
T03C0.0400
%
T01
X3000Y11000
X24000Y19000
T02
X22795Y20669
X21795Y20669
X20795Y20669
X19795Y20669
X18795Y20669
X17795Y20669
X16795Y20669
X15795Y20669
X14795Y20669
X13795Y20669
X12795Y20669
X11795Y20669
X10795Y20669
X9795Y20669
X8795Y20669
X7795Y20669
X6795Y20669
X5795Y20669
X4795Y20669
X3795Y20669
X3795Y21669
X4795Y21669
X5795Y21669
X6795Y21669
X7795Y21669
X8795Y21669
X9795Y21669
X10795Y21669
X11795Y21669
X12795Y21669
X13795Y21669
X14795Y21669
X15795Y21669
X16795Y21669
X17795Y21669
X18795Y21669
X19795Y21669
X20795Y21669
X21795Y21669
X22795Y21669
T03
X6500Y3000
X6500Y4000
X6500Y5000
X6500Y6000
X6500Y7000
X6500Y8000
X15000Y8000
X15000Y9000
X15000Y7000
X15000Y6000
X15000Y5000
X15000Y4000
X15500Y15000
X15544Y15999
X15587Y16998
X15631Y17997
X15674Y18996
X7000Y19000
X7000Y18000
X7000Y17000
X7000Y16000
X7000Y15000
M30
