G75*
%MOIN*%
%OFA0B0*%
%FSLAX24Y24*%
%IPPOS*%
%LPD*%
%AMOC8*
5,1,8,0,0,1.08239X$1,22.5*
%
%ADD10C,0.0060*%
%ADD11C,0.0740*%
%ADD12R,0.0700X0.0700*%
%ADD13C,0.0700*%
%ADD14C,0.0160*%
%ADD15C,0.0396*%
D10*
X007756Y007530D02*
X007543Y007744D01*
X007543Y008171D01*
X007970Y008171D02*
X007970Y007744D01*
X007756Y007530D01*
X016043Y007171D02*
X016043Y006744D01*
X016256Y006530D01*
X016470Y006744D01*
X016470Y007171D01*
X016756Y017530D02*
X016543Y017744D01*
X016543Y018171D01*
X016970Y018171D02*
X016970Y017744D01*
X016756Y017530D01*
X008470Y017744D02*
X008256Y017530D01*
X008043Y017744D01*
X008043Y018171D01*
X008470Y018171D02*
X008470Y017744D01*
D11*
X007000Y018000D03*
X007000Y019000D03*
X007000Y017000D03*
X007000Y016000D03*
X007000Y015000D03*
X015500Y015000D03*
X015544Y015999D03*
X015587Y016998D03*
X015631Y017997D03*
X015674Y018996D03*
X015000Y009000D03*
X015000Y008000D03*
X015000Y007000D03*
X015000Y006000D03*
X015000Y005000D03*
X015000Y004000D03*
X006500Y004000D03*
X006500Y003000D03*
X006500Y005000D03*
X006500Y006000D03*
X006500Y007000D03*
X006500Y008000D03*
D12*
X003795Y020669D03*
D13*
X004795Y020669D03*
X005795Y020669D03*
X006795Y020669D03*
X007795Y020669D03*
X008795Y020669D03*
X009795Y020669D03*
X010795Y020669D03*
X011795Y020669D03*
X012795Y020669D03*
X013795Y020669D03*
X014795Y020669D03*
X015795Y020669D03*
X016795Y020669D03*
X017795Y020669D03*
X018795Y020669D03*
X019795Y020669D03*
X020795Y020669D03*
X021795Y020669D03*
X022795Y020669D03*
X022795Y021669D03*
X021795Y021669D03*
X020795Y021669D03*
X019795Y021669D03*
X018795Y021669D03*
X017795Y021669D03*
X016795Y021669D03*
X015795Y021669D03*
X014795Y021669D03*
X013795Y021669D03*
X012795Y021669D03*
X011795Y021669D03*
X010795Y021669D03*
X009795Y021669D03*
X008795Y021669D03*
X007795Y021669D03*
X006795Y021669D03*
X005795Y021669D03*
X004795Y021669D03*
X003795Y021669D03*
D14*
X001005Y001104D02*
X001047Y001047D01*
X001104Y001005D01*
X001172Y000983D01*
X001207Y000980D01*
X024012Y000980D01*
X024018Y016718D01*
X023998Y016718D01*
X016088Y016718D01*
X016070Y016675D01*
X015910Y016515D01*
X015849Y016490D01*
X015866Y016482D01*
X016027Y016322D01*
X016114Y016112D01*
X016114Y015886D01*
X016027Y015676D01*
X015866Y015516D01*
X015805Y015490D01*
X015823Y015483D01*
X015983Y015323D01*
X016070Y015113D01*
X016070Y014887D01*
X015983Y014677D01*
X015823Y014517D01*
X015613Y014430D01*
X015387Y014430D01*
X015177Y014517D01*
X015017Y014677D01*
X014930Y014887D01*
X014930Y015113D01*
X015017Y015323D01*
X015177Y015483D01*
X015238Y015509D01*
X015221Y015516D01*
X015060Y015676D01*
X014974Y015886D01*
X014974Y016112D01*
X015060Y016322D01*
X015221Y016482D01*
X015282Y016508D01*
X015264Y016515D01*
X015104Y016675D01*
X015085Y016720D01*
X007501Y016720D01*
X007483Y016677D01*
X007323Y016517D01*
X007282Y016500D01*
X007323Y016483D01*
X007483Y016323D01*
X007570Y016113D01*
X007570Y015887D01*
X007483Y015677D01*
X007323Y015517D01*
X007282Y015500D01*
X007323Y015483D01*
X007483Y015323D01*
X007570Y015113D01*
X007570Y014887D01*
X007483Y014677D01*
X007323Y014517D01*
X007113Y014430D01*
X006887Y014430D01*
X006677Y014517D01*
X006517Y014677D01*
X006499Y014720D01*
X004944Y014720D01*
X004841Y014763D01*
X004780Y014824D01*
X004780Y006280D01*
X005999Y006280D01*
X006017Y006323D01*
X006177Y006483D01*
X006218Y006500D01*
X006177Y006517D01*
X006017Y006677D01*
X005930Y006887D01*
X005930Y007113D01*
X006017Y007323D01*
X006177Y007483D01*
X006218Y007500D01*
X006177Y007517D01*
X006017Y007677D01*
X005930Y007887D01*
X005930Y008113D01*
X006017Y008323D01*
X006177Y008483D01*
X006387Y008570D01*
X006613Y008570D01*
X006823Y008483D01*
X006899Y008407D01*
X006899Y008445D01*
X006901Y008467D01*
X006906Y008489D01*
X006914Y008510D01*
X006924Y008530D01*
X006936Y008549D01*
X006950Y008567D01*
X006966Y008583D01*
X006983Y008597D01*
X007002Y008609D01*
X007022Y008618D01*
X007044Y008626D01*
X007065Y008631D01*
X007088Y008633D01*
X008245Y008633D01*
X008267Y008631D01*
X008289Y008626D01*
X008310Y008618D01*
X008330Y008609D01*
X008349Y008597D01*
X008367Y008583D01*
X008383Y008567D01*
X008397Y008549D01*
X008409Y008530D01*
X008418Y008510D01*
X008426Y008489D01*
X008431Y008467D01*
X008433Y008445D01*
X008433Y007280D01*
X009884Y007280D01*
X010841Y008237D01*
X010944Y008280D01*
X014499Y008280D01*
X014517Y008323D01*
X014677Y008483D01*
X014718Y008500D01*
X014677Y008517D01*
X014517Y008677D01*
X014430Y008887D01*
X014430Y009113D01*
X014517Y009323D01*
X014677Y009483D01*
X014887Y009570D01*
X015113Y009570D01*
X015323Y009483D01*
X015483Y009323D01*
X015570Y009113D01*
X015570Y008887D01*
X015483Y008677D01*
X015323Y008517D01*
X015282Y008500D01*
X015323Y008483D01*
X015483Y008323D01*
X015570Y008113D01*
X015570Y007887D01*
X015483Y007677D01*
X015323Y007517D01*
X015282Y007500D01*
X015323Y007483D01*
X015399Y007407D01*
X015399Y007445D01*
X015401Y007467D01*
X015406Y007489D01*
X015414Y007510D01*
X015424Y007530D01*
X015436Y007549D01*
X015450Y007567D01*
X015466Y007583D01*
X015483Y007597D01*
X015502Y007609D01*
X015522Y007618D01*
X015544Y007626D01*
X015565Y007631D01*
X015588Y007633D01*
X016745Y007633D01*
X016767Y007631D01*
X016789Y007626D01*
X016810Y007618D01*
X016830Y007609D01*
X016849Y007597D01*
X016867Y007583D01*
X016883Y007567D01*
X016897Y007549D01*
X016909Y007530D01*
X016918Y007510D01*
X016926Y007489D01*
X016931Y007467D01*
X016933Y007445D01*
X016933Y006255D01*
X016931Y006233D01*
X016926Y006211D01*
X016918Y006190D01*
X016909Y006170D01*
X016897Y006151D01*
X016883Y006133D01*
X016867Y006117D01*
X016849Y006103D01*
X016830Y006091D01*
X016810Y006082D01*
X016789Y006074D01*
X016767Y006069D01*
X016745Y006067D01*
X015588Y006067D01*
X015570Y006069D01*
X015570Y005887D01*
X015483Y005677D01*
X015323Y005517D01*
X015282Y005500D01*
X015323Y005483D01*
X015483Y005323D01*
X015570Y005113D01*
X015570Y004887D01*
X015483Y004677D01*
X015323Y004517D01*
X015282Y004500D01*
X015323Y004483D01*
X015483Y004323D01*
X015570Y004113D01*
X015570Y003887D01*
X015483Y003677D01*
X015323Y003517D01*
X015113Y003430D01*
X014887Y003430D01*
X014677Y003517D01*
X014517Y003677D01*
X014430Y003887D01*
X014430Y004113D01*
X014517Y004323D01*
X014677Y004483D01*
X014718Y004500D01*
X014677Y004517D01*
X014517Y004677D01*
X014430Y004887D01*
X014430Y005113D01*
X014517Y005323D01*
X014677Y005483D01*
X014718Y005500D01*
X014677Y005517D01*
X014517Y005677D01*
X014430Y005887D01*
X014430Y006113D01*
X014517Y006323D01*
X014677Y006483D01*
X014718Y006500D01*
X014677Y006517D01*
X014517Y006677D01*
X014430Y006887D01*
X014430Y007113D01*
X014517Y007323D01*
X014677Y007483D01*
X014718Y007500D01*
X014677Y007517D01*
X014517Y007677D01*
X014499Y007720D01*
X011116Y007720D01*
X010237Y006841D01*
X010159Y006763D01*
X010056Y006720D01*
X007001Y006720D01*
X006983Y006677D01*
X006823Y006517D01*
X006782Y006500D01*
X006823Y006483D01*
X006983Y006323D01*
X007070Y006113D01*
X007070Y005887D01*
X006983Y005677D01*
X006823Y005517D01*
X006782Y005500D01*
X006823Y005483D01*
X006983Y005323D01*
X007070Y005113D01*
X007070Y004887D01*
X006983Y004677D01*
X006823Y004517D01*
X006782Y004500D01*
X006823Y004483D01*
X006983Y004323D01*
X007070Y004113D01*
X007070Y003887D01*
X006983Y003677D01*
X006823Y003517D01*
X006782Y003500D01*
X006823Y003483D01*
X006983Y003323D01*
X007070Y003113D01*
X007070Y002887D01*
X006983Y002677D01*
X006823Y002517D01*
X006613Y002430D01*
X006387Y002430D01*
X006177Y002517D01*
X006017Y002677D01*
X005930Y002887D01*
X005930Y003113D01*
X006017Y003323D01*
X006177Y003483D01*
X006218Y003500D01*
X006177Y003517D01*
X006017Y003677D01*
X005930Y003887D01*
X005930Y004113D01*
X006017Y004323D01*
X006177Y004483D01*
X006218Y004500D01*
X006177Y004517D01*
X006017Y004677D01*
X005999Y004720D01*
X002944Y004720D01*
X002841Y004763D01*
X002763Y004841D01*
X002720Y004944D01*
X002720Y010717D01*
X002662Y010774D01*
X002602Y010921D01*
X002602Y011079D01*
X002662Y011226D01*
X002774Y011338D01*
X002921Y011398D01*
X003079Y011398D01*
X003226Y011338D01*
X003338Y011226D01*
X003398Y011079D01*
X003398Y010921D01*
X003338Y010774D01*
X003280Y010717D01*
X003280Y005280D01*
X005999Y005280D01*
X006017Y005323D01*
X006177Y005483D01*
X006218Y005500D01*
X006177Y005517D01*
X006017Y005677D01*
X005999Y005720D01*
X004444Y005720D01*
X004341Y005763D01*
X004263Y005841D01*
X004220Y005944D01*
X004220Y020119D01*
X003362Y020119D01*
X003245Y020236D01*
X003245Y021102D01*
X003362Y021219D01*
X003467Y021219D01*
X003329Y021358D01*
X003245Y021560D01*
X003245Y021779D01*
X003329Y021981D01*
X003368Y022020D01*
X001207Y022020D01*
X001172Y022017D01*
X001104Y021995D01*
X001047Y021953D01*
X001005Y021896D01*
X000983Y021828D01*
X000980Y021793D01*
X000980Y001207D01*
X000983Y001172D01*
X001005Y001104D01*
X000995Y001134D02*
X024012Y001134D01*
X024012Y001293D02*
X000980Y001293D01*
X000980Y001451D02*
X024012Y001451D01*
X024013Y001610D02*
X000980Y001610D01*
X000980Y001768D02*
X024013Y001768D01*
X024013Y001927D02*
X000980Y001927D01*
X000980Y002085D02*
X024013Y002085D01*
X024013Y002244D02*
X000980Y002244D01*
X000980Y002402D02*
X024013Y002402D01*
X024013Y002561D02*
X006867Y002561D01*
X007001Y002719D02*
X024013Y002719D01*
X024013Y002878D02*
X007066Y002878D01*
X007070Y003036D02*
X024013Y003036D01*
X024013Y003195D02*
X007036Y003195D01*
X006953Y003353D02*
X024013Y003353D01*
X024013Y003512D02*
X015310Y003512D01*
X015476Y003670D02*
X024013Y003670D01*
X024013Y003829D02*
X015546Y003829D01*
X015570Y003987D02*
X024013Y003987D01*
X024013Y004146D02*
X015557Y004146D01*
X015491Y004304D02*
X024013Y004304D01*
X024014Y004463D02*
X015344Y004463D01*
X015427Y004621D02*
X024014Y004621D01*
X024014Y004780D02*
X015526Y004780D01*
X015570Y004938D02*
X024014Y004938D01*
X024014Y005097D02*
X015570Y005097D01*
X015511Y005255D02*
X024014Y005255D01*
X024014Y005414D02*
X015393Y005414D01*
X015378Y005572D02*
X024014Y005572D01*
X024014Y005731D02*
X015505Y005731D01*
X015570Y005889D02*
X024014Y005889D01*
X024014Y006048D02*
X015570Y006048D01*
X015399Y006407D02*
X015323Y006483D01*
X015282Y006500D01*
X015323Y006517D01*
X015399Y006593D01*
X015399Y006407D01*
X015399Y006523D02*
X015329Y006523D01*
X014671Y006523D02*
X006829Y006523D01*
X006942Y006365D02*
X014558Y006365D01*
X014468Y006206D02*
X007032Y006206D01*
X007070Y006048D02*
X014430Y006048D01*
X014430Y005889D02*
X007070Y005889D01*
X007005Y005731D02*
X014495Y005731D01*
X014622Y005572D02*
X006878Y005572D01*
X006893Y005414D02*
X014607Y005414D01*
X014489Y005255D02*
X007011Y005255D01*
X007070Y005097D02*
X014430Y005097D01*
X014430Y004938D02*
X007070Y004938D01*
X007026Y004780D02*
X014474Y004780D01*
X014573Y004621D02*
X006927Y004621D01*
X006844Y004463D02*
X014656Y004463D01*
X014509Y004304D02*
X006991Y004304D01*
X007057Y004146D02*
X014443Y004146D01*
X014430Y003987D02*
X007070Y003987D01*
X007046Y003829D02*
X014454Y003829D01*
X014524Y003670D02*
X006976Y003670D01*
X006810Y003512D02*
X014690Y003512D01*
X016924Y006206D02*
X024014Y006206D01*
X024014Y006365D02*
X016933Y006365D01*
X016933Y006523D02*
X024014Y006523D01*
X024014Y006682D02*
X016933Y006682D01*
X016933Y006840D02*
X024014Y006840D01*
X024014Y006999D02*
X016933Y006999D01*
X016933Y007157D02*
X024015Y007157D01*
X024015Y007316D02*
X016933Y007316D01*
X016929Y007474D02*
X024015Y007474D01*
X024015Y007633D02*
X016752Y007633D01*
X015580Y007633D02*
X015439Y007633D01*
X015403Y007474D02*
X015332Y007474D01*
X015530Y007791D02*
X024015Y007791D01*
X024015Y007950D02*
X015570Y007950D01*
X015570Y008108D02*
X024015Y008108D01*
X024015Y008267D02*
X015507Y008267D01*
X015381Y008425D02*
X024015Y008425D01*
X024015Y008584D02*
X015390Y008584D01*
X015510Y008742D02*
X024015Y008742D01*
X024015Y008901D02*
X015570Y008901D01*
X015570Y009059D02*
X024015Y009059D01*
X024015Y009218D02*
X015527Y009218D01*
X015430Y009376D02*
X024015Y009376D01*
X024015Y009535D02*
X015199Y009535D01*
X014801Y009535D02*
X004780Y009535D01*
X004780Y009693D02*
X024015Y009693D01*
X024015Y009852D02*
X004780Y009852D01*
X004780Y010010D02*
X024016Y010010D01*
X024016Y010169D02*
X004780Y010169D01*
X004780Y010327D02*
X024016Y010327D01*
X024016Y010486D02*
X004780Y010486D01*
X004780Y010644D02*
X024016Y010644D01*
X024016Y010803D02*
X004780Y010803D01*
X004780Y010961D02*
X024016Y010961D01*
X024016Y011120D02*
X004780Y011120D01*
X004780Y011278D02*
X024016Y011278D01*
X024016Y011437D02*
X004780Y011437D01*
X004780Y011595D02*
X024016Y011595D01*
X024016Y011754D02*
X004780Y011754D01*
X004780Y011912D02*
X024016Y011912D01*
X024016Y012071D02*
X004780Y012071D01*
X004780Y012229D02*
X024016Y012229D01*
X024016Y012388D02*
X004780Y012388D01*
X004780Y012546D02*
X024016Y012546D01*
X024016Y012705D02*
X004780Y012705D01*
X004780Y012863D02*
X024017Y012863D01*
X024017Y013022D02*
X004780Y013022D01*
X004780Y013180D02*
X024017Y013180D01*
X024017Y013339D02*
X004780Y013339D01*
X004780Y013497D02*
X024017Y013497D01*
X024017Y013656D02*
X004780Y013656D01*
X004780Y013814D02*
X024017Y013814D01*
X024017Y013973D02*
X004780Y013973D01*
X004780Y014131D02*
X024017Y014131D01*
X024017Y014290D02*
X004780Y014290D01*
X004780Y014448D02*
X006843Y014448D01*
X006587Y014607D02*
X004780Y014607D01*
X004780Y014765D02*
X004839Y014765D01*
X005000Y015000D02*
X007000Y015000D01*
X007407Y015399D02*
X015093Y015399D01*
X015179Y015558D02*
X007364Y015558D01*
X007499Y015716D02*
X015044Y015716D01*
X014978Y015875D02*
X007565Y015875D01*
X007570Y016033D02*
X014974Y016033D01*
X015006Y016192D02*
X007538Y016192D01*
X007456Y016350D02*
X015088Y016350D01*
X015280Y016509D02*
X007303Y016509D01*
X007473Y016667D02*
X015112Y016667D01*
X015585Y017000D02*
X015587Y016998D01*
X023998Y016998D01*
X024000Y017500D01*
X024000Y019000D01*
X023720Y018717D02*
X023720Y017501D01*
X023719Y017278D01*
X017433Y017278D01*
X017433Y018445D01*
X017431Y018467D01*
X017426Y018489D01*
X017418Y018510D01*
X017409Y018530D01*
X017397Y018549D01*
X017383Y018567D01*
X017367Y018583D01*
X017349Y018597D01*
X017330Y018609D01*
X017310Y018618D01*
X017289Y018626D01*
X017267Y018631D01*
X017245Y018633D01*
X016118Y018633D01*
X016158Y018673D01*
X016244Y018883D01*
X016244Y019110D01*
X016158Y019319D01*
X015997Y019479D01*
X015788Y019566D01*
X015561Y019566D01*
X015352Y019479D01*
X015191Y019319D01*
X015104Y019110D01*
X015104Y018883D01*
X015191Y018673D01*
X015352Y018513D01*
X015369Y018506D01*
X015308Y018480D01*
X015148Y018320D01*
X015061Y018111D01*
X015061Y017884D01*
X015148Y017674D01*
X015308Y017514D01*
X015326Y017507D01*
X015264Y017481D01*
X015104Y017321D01*
X015087Y017280D01*
X008933Y017280D01*
X008933Y018445D01*
X008931Y018467D01*
X008926Y018489D01*
X008918Y018510D01*
X008909Y018530D01*
X008897Y018549D01*
X008883Y018567D01*
X008867Y018583D01*
X008849Y018597D01*
X008830Y018609D01*
X008810Y018618D01*
X008789Y018626D01*
X008767Y018631D01*
X008745Y018633D01*
X007588Y018633D01*
X007565Y018631D01*
X007544Y018626D01*
X007522Y018618D01*
X007502Y018609D01*
X007483Y018597D01*
X007466Y018583D01*
X007450Y018567D01*
X007436Y018549D01*
X007424Y018530D01*
X007414Y018510D01*
X007406Y018489D01*
X007401Y018467D01*
X007399Y018445D01*
X007399Y018407D01*
X007323Y018483D01*
X007282Y018500D01*
X007323Y018517D01*
X007483Y018677D01*
X007570Y018887D01*
X007570Y019113D01*
X007483Y019323D01*
X007323Y019483D01*
X007113Y019570D01*
X006887Y019570D01*
X006677Y019483D01*
X006517Y019323D01*
X006430Y019113D01*
X006430Y018887D01*
X006517Y018677D01*
X006677Y018517D01*
X006718Y018500D01*
X006677Y018483D01*
X006517Y018323D01*
X006430Y018113D01*
X006430Y017887D01*
X006517Y017677D01*
X006677Y017517D01*
X006718Y017500D01*
X006677Y017483D01*
X006517Y017323D01*
X006430Y017113D01*
X006430Y016887D01*
X006517Y016677D01*
X006677Y016517D01*
X006718Y016500D01*
X006677Y016483D01*
X006517Y016323D01*
X006499Y016280D01*
X006280Y016280D01*
X006280Y020402D01*
X006295Y020439D01*
X006329Y020358D01*
X006484Y020203D01*
X006686Y020119D01*
X006905Y020119D01*
X007107Y020203D01*
X007262Y020358D01*
X007295Y020439D01*
X007329Y020358D01*
X007484Y020203D01*
X007686Y020119D01*
X007905Y020119D01*
X008107Y020203D01*
X008262Y020358D01*
X008295Y020439D01*
X008329Y020358D01*
X008484Y020203D01*
X008686Y020119D01*
X008905Y020119D01*
X009107Y020203D01*
X009262Y020358D01*
X009295Y020439D01*
X009329Y020358D01*
X009484Y020203D01*
X009686Y020119D01*
X009905Y020119D01*
X010107Y020203D01*
X010262Y020358D01*
X010295Y020439D01*
X010329Y020358D01*
X010484Y020203D01*
X010686Y020119D01*
X010905Y020119D01*
X011107Y020203D01*
X011262Y020358D01*
X011295Y020439D01*
X011329Y020358D01*
X011484Y020203D01*
X011686Y020119D01*
X011905Y020119D01*
X012107Y020203D01*
X012262Y020358D01*
X012295Y020439D01*
X012329Y020358D01*
X012484Y020203D01*
X012686Y020119D01*
X012905Y020119D01*
X013107Y020203D01*
X013262Y020358D01*
X013295Y020439D01*
X013329Y020358D01*
X013484Y020203D01*
X013686Y020119D01*
X013905Y020119D01*
X014107Y020203D01*
X014262Y020358D01*
X014295Y020439D01*
X014329Y020358D01*
X014484Y020203D01*
X014686Y020119D01*
X014905Y020119D01*
X015107Y020203D01*
X015262Y020358D01*
X015295Y020439D01*
X015329Y020358D01*
X015484Y020203D01*
X015686Y020119D01*
X015905Y020119D01*
X016107Y020203D01*
X016262Y020358D01*
X016295Y020439D01*
X016329Y020358D01*
X016484Y020203D01*
X016686Y020119D01*
X016905Y020119D01*
X017107Y020203D01*
X017262Y020358D01*
X017295Y020439D01*
X017329Y020358D01*
X017484Y020203D01*
X017686Y020119D01*
X017905Y020119D01*
X018107Y020203D01*
X018262Y020358D01*
X018295Y020439D01*
X018329Y020358D01*
X018484Y020203D01*
X018686Y020119D01*
X018905Y020119D01*
X019107Y020203D01*
X019262Y020358D01*
X019295Y020439D01*
X019329Y020358D01*
X019484Y020203D01*
X019686Y020119D01*
X019905Y020119D01*
X020107Y020203D01*
X020262Y020358D01*
X020295Y020439D01*
X020329Y020358D01*
X020484Y020203D01*
X020686Y020119D01*
X020905Y020119D01*
X021107Y020203D01*
X021262Y020358D01*
X021295Y020439D01*
X021329Y020358D01*
X021484Y020203D01*
X021686Y020119D01*
X021905Y020119D01*
X022107Y020203D01*
X022262Y020358D01*
X022295Y020439D01*
X022329Y020358D01*
X022484Y020203D01*
X022686Y020119D01*
X022905Y020119D01*
X023107Y020203D01*
X023262Y020358D01*
X023345Y020560D01*
X023345Y020779D01*
X023262Y020981D01*
X023107Y021136D01*
X023025Y021169D01*
X023107Y021203D01*
X023262Y021358D01*
X023345Y021560D01*
X023345Y021779D01*
X023262Y021981D01*
X023222Y022020D01*
X024020Y022020D01*
X024019Y019398D01*
X023921Y019398D01*
X023774Y019338D01*
X023662Y019226D01*
X023602Y019079D01*
X023602Y018921D01*
X023662Y018774D01*
X023720Y018717D01*
X023709Y018728D02*
X016180Y018728D01*
X016244Y018886D02*
X023616Y018886D01*
X023602Y019045D02*
X016244Y019045D01*
X016206Y019203D02*
X023653Y019203D01*
X023833Y019362D02*
X016115Y019362D01*
X015899Y019520D02*
X024019Y019520D01*
X024019Y019679D02*
X006280Y019679D01*
X006280Y019837D02*
X024019Y019837D01*
X024019Y019996D02*
X006280Y019996D01*
X006280Y020154D02*
X006602Y020154D01*
X006374Y020313D02*
X006280Y020313D01*
X006000Y020500D02*
X006000Y016000D01*
X007000Y016000D01*
X006499Y015720D02*
X006517Y015677D01*
X006677Y015517D01*
X006718Y015500D01*
X006677Y015483D01*
X006517Y015323D01*
X006499Y015280D01*
X005116Y015280D01*
X004780Y015616D01*
X004780Y020119D01*
X004905Y020119D01*
X005107Y020203D01*
X005262Y020358D01*
X005295Y020439D01*
X005329Y020358D01*
X005484Y020203D01*
X005686Y020119D01*
X005720Y020119D01*
X005720Y015944D01*
X005763Y015841D01*
X005841Y015763D01*
X005944Y015720D01*
X006499Y015720D01*
X006501Y015716D02*
X004780Y015716D01*
X004780Y015875D02*
X005749Y015875D01*
X005720Y016033D02*
X004780Y016033D01*
X004780Y016192D02*
X005720Y016192D01*
X005720Y016350D02*
X004780Y016350D01*
X004780Y016509D02*
X005720Y016509D01*
X005720Y016667D02*
X004780Y016667D01*
X004780Y016826D02*
X005720Y016826D01*
X005720Y016984D02*
X004780Y016984D01*
X004780Y017143D02*
X005720Y017143D01*
X005720Y017301D02*
X004780Y017301D01*
X004780Y017460D02*
X005720Y017460D01*
X005720Y017618D02*
X004780Y017618D01*
X004780Y017777D02*
X005720Y017777D01*
X005720Y017935D02*
X004780Y017935D01*
X004780Y018094D02*
X005720Y018094D01*
X005720Y018252D02*
X004780Y018252D01*
X004780Y018411D02*
X005720Y018411D01*
X005720Y018569D02*
X004780Y018569D01*
X004780Y018728D02*
X005720Y018728D01*
X005720Y018886D02*
X004780Y018886D01*
X004780Y019045D02*
X005720Y019045D01*
X005720Y019203D02*
X004780Y019203D01*
X004780Y019362D02*
X005720Y019362D01*
X005720Y019520D02*
X004780Y019520D01*
X004780Y019679D02*
X005720Y019679D01*
X005720Y019837D02*
X004780Y019837D01*
X004780Y019996D02*
X005720Y019996D01*
X005602Y020154D02*
X004989Y020154D01*
X005216Y020313D02*
X005374Y020313D01*
X005795Y020669D02*
X005831Y020669D01*
X006000Y020500D01*
X006295Y020899D02*
X006262Y020981D01*
X006107Y021136D01*
X006025Y021169D01*
X006107Y021203D01*
X006262Y021358D01*
X006295Y021439D01*
X006329Y021358D01*
X006484Y021203D01*
X006565Y021169D01*
X006484Y021136D01*
X006329Y020981D01*
X006295Y020899D01*
X006276Y020947D02*
X006315Y020947D01*
X006453Y021105D02*
X006137Y021105D01*
X006167Y021264D02*
X006423Y021264D01*
X006302Y021422D02*
X006288Y021422D01*
X006295Y021899D02*
X006262Y021981D01*
X006222Y022020D01*
X006368Y022020D01*
X006329Y021981D01*
X006295Y021899D01*
X005368Y022020D02*
X005329Y021981D01*
X005295Y021899D01*
X005262Y021981D01*
X005222Y022020D01*
X005368Y022020D01*
X005295Y021439D02*
X005329Y021358D01*
X005484Y021203D01*
X005565Y021169D01*
X005484Y021136D01*
X005329Y020981D01*
X005295Y020899D01*
X005262Y020981D01*
X005107Y021136D01*
X005025Y021169D01*
X005107Y021203D01*
X005262Y021358D01*
X005295Y021439D01*
X005288Y021422D02*
X005302Y021422D01*
X005423Y021264D02*
X005167Y021264D01*
X005137Y021105D02*
X005453Y021105D01*
X005315Y020947D02*
X005276Y020947D01*
X004795Y020669D02*
X004669Y020669D01*
X004500Y020500D01*
X004500Y015500D01*
X004500Y006000D01*
X006500Y006000D01*
X006122Y005572D02*
X003280Y005572D01*
X003280Y005414D02*
X006107Y005414D01*
X006500Y005000D02*
X003000Y005000D01*
X003000Y011000D01*
X003285Y011278D02*
X004220Y011278D01*
X004220Y011120D02*
X003381Y011120D01*
X003398Y010961D02*
X004220Y010961D01*
X004220Y010803D02*
X003349Y010803D01*
X003280Y010644D02*
X004220Y010644D01*
X004220Y010486D02*
X003280Y010486D01*
X003280Y010327D02*
X004220Y010327D01*
X004220Y010169D02*
X003280Y010169D01*
X003280Y010010D02*
X004220Y010010D01*
X004220Y009852D02*
X003280Y009852D01*
X003280Y009693D02*
X004220Y009693D01*
X004220Y009535D02*
X003280Y009535D01*
X003280Y009376D02*
X004220Y009376D01*
X004220Y009218D02*
X003280Y009218D01*
X003280Y009059D02*
X004220Y009059D01*
X004220Y008901D02*
X003280Y008901D01*
X003280Y008742D02*
X004220Y008742D01*
X004220Y008584D02*
X003280Y008584D01*
X003280Y008425D02*
X004220Y008425D01*
X004220Y008267D02*
X003280Y008267D01*
X003280Y008108D02*
X004220Y008108D01*
X004220Y007950D02*
X003280Y007950D01*
X003280Y007791D02*
X004220Y007791D01*
X004220Y007633D02*
X003280Y007633D01*
X003280Y007474D02*
X004220Y007474D01*
X004220Y007316D02*
X003280Y007316D01*
X003280Y007157D02*
X004220Y007157D01*
X004220Y006999D02*
X003280Y006999D01*
X003280Y006840D02*
X004220Y006840D01*
X004220Y006682D02*
X003280Y006682D01*
X003280Y006523D02*
X004220Y006523D01*
X004220Y006365D02*
X003280Y006365D01*
X003280Y006206D02*
X004220Y006206D01*
X004220Y006048D02*
X003280Y006048D01*
X003280Y005889D02*
X004243Y005889D01*
X004419Y005731D02*
X003280Y005731D01*
X002720Y005731D02*
X000980Y005731D01*
X000980Y005889D02*
X002720Y005889D01*
X002720Y006048D02*
X000980Y006048D01*
X000980Y006206D02*
X002720Y006206D01*
X002720Y006365D02*
X000980Y006365D01*
X000980Y006523D02*
X002720Y006523D01*
X002720Y006682D02*
X000980Y006682D01*
X000980Y006840D02*
X002720Y006840D01*
X002720Y006999D02*
X000980Y006999D01*
X000980Y007157D02*
X002720Y007157D01*
X002720Y007316D02*
X000980Y007316D01*
X000980Y007474D02*
X002720Y007474D01*
X002720Y007633D02*
X000980Y007633D01*
X000980Y007791D02*
X002720Y007791D01*
X002720Y007950D02*
X000980Y007950D01*
X000980Y008108D02*
X002720Y008108D01*
X002720Y008267D02*
X000980Y008267D01*
X000980Y008425D02*
X002720Y008425D01*
X002720Y008584D02*
X000980Y008584D01*
X000980Y008742D02*
X002720Y008742D01*
X002720Y008901D02*
X000980Y008901D01*
X000980Y009059D02*
X002720Y009059D01*
X002720Y009218D02*
X000980Y009218D01*
X000980Y009376D02*
X002720Y009376D01*
X002720Y009535D02*
X000980Y009535D01*
X000980Y009693D02*
X002720Y009693D01*
X002720Y009852D02*
X000980Y009852D01*
X000980Y010010D02*
X002720Y010010D01*
X002720Y010169D02*
X000980Y010169D01*
X000980Y010327D02*
X002720Y010327D01*
X002720Y010486D02*
X000980Y010486D01*
X000980Y010644D02*
X002720Y010644D01*
X002651Y010803D02*
X000980Y010803D01*
X000980Y010961D02*
X002602Y010961D01*
X002619Y011120D02*
X000980Y011120D01*
X000980Y011278D02*
X002715Y011278D01*
X004220Y011437D02*
X000980Y011437D01*
X000980Y011595D02*
X004220Y011595D01*
X004220Y011754D02*
X000980Y011754D01*
X000980Y011912D02*
X004220Y011912D01*
X004220Y012071D02*
X000980Y012071D01*
X000980Y012229D02*
X004220Y012229D01*
X004220Y012388D02*
X000980Y012388D01*
X000980Y012546D02*
X004220Y012546D01*
X004220Y012705D02*
X000980Y012705D01*
X000980Y012863D02*
X004220Y012863D01*
X004220Y013022D02*
X000980Y013022D01*
X000980Y013180D02*
X004220Y013180D01*
X004220Y013339D02*
X000980Y013339D01*
X000980Y013497D02*
X004220Y013497D01*
X004220Y013656D02*
X000980Y013656D01*
X000980Y013814D02*
X004220Y013814D01*
X004220Y013973D02*
X000980Y013973D01*
X000980Y014131D02*
X004220Y014131D01*
X004220Y014290D02*
X000980Y014290D01*
X000980Y014448D02*
X004220Y014448D01*
X004220Y014607D02*
X000980Y014607D01*
X000980Y014765D02*
X004220Y014765D01*
X004220Y014924D02*
X000980Y014924D01*
X000980Y015082D02*
X004220Y015082D01*
X004220Y015241D02*
X000980Y015241D01*
X000980Y015399D02*
X004220Y015399D01*
X004220Y015558D02*
X000980Y015558D01*
X000980Y015716D02*
X004220Y015716D01*
X004220Y015875D02*
X000980Y015875D01*
X000980Y016033D02*
X004220Y016033D01*
X004220Y016192D02*
X000980Y016192D01*
X000980Y016350D02*
X004220Y016350D01*
X004220Y016509D02*
X000980Y016509D01*
X000980Y016667D02*
X004220Y016667D01*
X004220Y016826D02*
X000980Y016826D01*
X000980Y016984D02*
X004220Y016984D01*
X004220Y017143D02*
X000980Y017143D01*
X000980Y017301D02*
X004220Y017301D01*
X004220Y017460D02*
X000980Y017460D01*
X000980Y017618D02*
X004220Y017618D01*
X004220Y017777D02*
X000980Y017777D01*
X000980Y017935D02*
X004220Y017935D01*
X004220Y018094D02*
X000980Y018094D01*
X000980Y018252D02*
X004220Y018252D01*
X004220Y018411D02*
X000980Y018411D01*
X000980Y018569D02*
X004220Y018569D01*
X004220Y018728D02*
X000980Y018728D01*
X000980Y018886D02*
X004220Y018886D01*
X004220Y019045D02*
X000980Y019045D01*
X000980Y019203D02*
X004220Y019203D01*
X004220Y019362D02*
X000980Y019362D01*
X000980Y019520D02*
X004220Y019520D01*
X004220Y019679D02*
X000980Y019679D01*
X000980Y019837D02*
X004220Y019837D01*
X004220Y019996D02*
X000980Y019996D01*
X000980Y020154D02*
X003328Y020154D01*
X003245Y020313D02*
X000980Y020313D01*
X000980Y020471D02*
X003245Y020471D01*
X003245Y020630D02*
X000980Y020630D01*
X000980Y020788D02*
X003245Y020788D01*
X003245Y020947D02*
X000980Y020947D01*
X000980Y021105D02*
X003248Y021105D01*
X003423Y021264D02*
X000980Y021264D01*
X000980Y021422D02*
X003302Y021422D01*
X003245Y021581D02*
X000980Y021581D01*
X000980Y021739D02*
X003245Y021739D01*
X003295Y021898D02*
X001006Y021898D01*
X004123Y021219D02*
X004262Y021358D01*
X004295Y021439D01*
X004329Y021358D01*
X004484Y021203D01*
X004565Y021169D01*
X004484Y021136D01*
X004345Y020997D01*
X004345Y021102D01*
X004228Y021219D01*
X004123Y021219D01*
X004167Y021264D02*
X004423Y021264D01*
X004453Y021105D02*
X004342Y021105D01*
X004302Y021422D02*
X004288Y021422D01*
X004295Y021899D02*
X004262Y021981D01*
X004222Y022020D01*
X004368Y022020D01*
X004329Y021981D01*
X004295Y021899D01*
X007025Y021169D02*
X007107Y021203D01*
X007262Y021358D01*
X007295Y021439D01*
X007329Y021358D01*
X007484Y021203D01*
X007565Y021169D01*
X007484Y021136D01*
X007329Y020981D01*
X007295Y020899D01*
X007262Y020981D01*
X007107Y021136D01*
X007025Y021169D01*
X007137Y021105D02*
X007453Y021105D01*
X007423Y021264D02*
X007167Y021264D01*
X007288Y021422D02*
X007302Y021422D01*
X007276Y020947D02*
X007315Y020947D01*
X008025Y021169D02*
X008107Y021203D01*
X008262Y021358D01*
X008295Y021439D01*
X008329Y021358D01*
X008484Y021203D01*
X008565Y021169D01*
X008484Y021136D01*
X008329Y020981D01*
X008295Y020899D01*
X008262Y020981D01*
X008107Y021136D01*
X008025Y021169D01*
X008137Y021105D02*
X008453Y021105D01*
X008423Y021264D02*
X008167Y021264D01*
X008288Y021422D02*
X008302Y021422D01*
X008276Y020947D02*
X008315Y020947D01*
X009025Y021169D02*
X009107Y021203D01*
X009262Y021358D01*
X009295Y021439D01*
X009329Y021358D01*
X009484Y021203D01*
X009565Y021169D01*
X009484Y021136D01*
X009329Y020981D01*
X009295Y020899D01*
X009262Y020981D01*
X009107Y021136D01*
X009025Y021169D01*
X009137Y021105D02*
X009453Y021105D01*
X009423Y021264D02*
X009167Y021264D01*
X009288Y021422D02*
X009302Y021422D01*
X009276Y020947D02*
X009315Y020947D01*
X010025Y021169D02*
X010107Y021203D01*
X010262Y021358D01*
X010295Y021439D01*
X010329Y021358D01*
X010484Y021203D01*
X010565Y021169D01*
X010484Y021136D01*
X010329Y020981D01*
X010295Y020899D01*
X010262Y020981D01*
X010107Y021136D01*
X010025Y021169D01*
X010137Y021105D02*
X010453Y021105D01*
X010423Y021264D02*
X010167Y021264D01*
X010288Y021422D02*
X010302Y021422D01*
X010276Y020947D02*
X010315Y020947D01*
X011025Y021169D02*
X011107Y021203D01*
X011262Y021358D01*
X011295Y021439D01*
X011329Y021358D01*
X011484Y021203D01*
X011565Y021169D01*
X011484Y021136D01*
X011329Y020981D01*
X011295Y020899D01*
X011262Y020981D01*
X011107Y021136D01*
X011025Y021169D01*
X011137Y021105D02*
X011453Y021105D01*
X011423Y021264D02*
X011167Y021264D01*
X011288Y021422D02*
X011302Y021422D01*
X011276Y020947D02*
X011315Y020947D01*
X012025Y021169D02*
X012107Y021203D01*
X012262Y021358D01*
X012295Y021439D01*
X012329Y021358D01*
X012484Y021203D01*
X012565Y021169D01*
X012484Y021136D01*
X012329Y020981D01*
X012295Y020899D01*
X012262Y020981D01*
X012107Y021136D01*
X012025Y021169D01*
X012137Y021105D02*
X012453Y021105D01*
X012423Y021264D02*
X012167Y021264D01*
X012288Y021422D02*
X012302Y021422D01*
X012276Y020947D02*
X012315Y020947D01*
X013025Y021169D02*
X013107Y021203D01*
X013262Y021358D01*
X013295Y021439D01*
X013329Y021358D01*
X013484Y021203D01*
X013565Y021169D01*
X013484Y021136D01*
X013329Y020981D01*
X013295Y020899D01*
X013262Y020981D01*
X013107Y021136D01*
X013025Y021169D01*
X013137Y021105D02*
X013453Y021105D01*
X013423Y021264D02*
X013167Y021264D01*
X013288Y021422D02*
X013302Y021422D01*
X013276Y020947D02*
X013315Y020947D01*
X014025Y021169D02*
X014107Y021203D01*
X014262Y021358D01*
X014295Y021439D01*
X014329Y021358D01*
X014484Y021203D01*
X014565Y021169D01*
X014484Y021136D01*
X014329Y020981D01*
X014295Y020899D01*
X014262Y020981D01*
X014107Y021136D01*
X014025Y021169D01*
X014137Y021105D02*
X014453Y021105D01*
X014423Y021264D02*
X014167Y021264D01*
X014288Y021422D02*
X014302Y021422D01*
X014276Y020947D02*
X014315Y020947D01*
X014374Y020313D02*
X014216Y020313D01*
X013989Y020154D02*
X014602Y020154D01*
X014989Y020154D02*
X015602Y020154D01*
X015374Y020313D02*
X015216Y020313D01*
X015989Y020154D02*
X016602Y020154D01*
X016374Y020313D02*
X016216Y020313D01*
X016989Y020154D02*
X017602Y020154D01*
X017374Y020313D02*
X017216Y020313D01*
X017989Y020154D02*
X018602Y020154D01*
X018374Y020313D02*
X018216Y020313D01*
X018989Y020154D02*
X019602Y020154D01*
X019374Y020313D02*
X019216Y020313D01*
X019989Y020154D02*
X020602Y020154D01*
X020374Y020313D02*
X020216Y020313D01*
X020989Y020154D02*
X021602Y020154D01*
X021374Y020313D02*
X021216Y020313D01*
X021989Y020154D02*
X022602Y020154D01*
X022374Y020313D02*
X022216Y020313D01*
X022989Y020154D02*
X024019Y020154D01*
X024019Y020313D02*
X023216Y020313D01*
X023308Y020471D02*
X024019Y020471D01*
X024019Y020630D02*
X023345Y020630D01*
X023341Y020788D02*
X024019Y020788D01*
X024019Y020947D02*
X023276Y020947D01*
X023137Y021105D02*
X024020Y021105D01*
X024020Y021264D02*
X023167Y021264D01*
X023288Y021422D02*
X024020Y021422D01*
X024020Y021581D02*
X023345Y021581D01*
X023345Y021739D02*
X024020Y021739D01*
X024020Y021898D02*
X023296Y021898D01*
X022368Y022020D02*
X022329Y021981D01*
X022295Y021899D01*
X022262Y021981D01*
X022222Y022020D01*
X022368Y022020D01*
X022295Y021439D02*
X022329Y021358D01*
X022484Y021203D01*
X022565Y021169D01*
X022484Y021136D01*
X022329Y020981D01*
X022295Y020899D01*
X022262Y020981D01*
X022107Y021136D01*
X022025Y021169D01*
X022107Y021203D01*
X022262Y021358D01*
X022295Y021439D01*
X022288Y021422D02*
X022302Y021422D01*
X022423Y021264D02*
X022167Y021264D01*
X022137Y021105D02*
X022453Y021105D01*
X022315Y020947D02*
X022276Y020947D01*
X021565Y021169D02*
X021484Y021136D01*
X021329Y020981D01*
X021295Y020899D01*
X021262Y020981D01*
X021107Y021136D01*
X021025Y021169D01*
X021107Y021203D01*
X021262Y021358D01*
X021295Y021439D01*
X021329Y021358D01*
X021484Y021203D01*
X021565Y021169D01*
X021453Y021105D02*
X021137Y021105D01*
X021167Y021264D02*
X021423Y021264D01*
X021302Y021422D02*
X021288Y021422D01*
X021276Y020947D02*
X021315Y020947D01*
X020565Y021169D02*
X020484Y021136D01*
X020329Y020981D01*
X020295Y020899D01*
X020262Y020981D01*
X020107Y021136D01*
X020025Y021169D01*
X020107Y021203D01*
X020262Y021358D01*
X020295Y021439D01*
X020329Y021358D01*
X020484Y021203D01*
X020565Y021169D01*
X020453Y021105D02*
X020137Y021105D01*
X020167Y021264D02*
X020423Y021264D01*
X020302Y021422D02*
X020288Y021422D01*
X020276Y020947D02*
X020315Y020947D01*
X019565Y021169D02*
X019484Y021136D01*
X019329Y020981D01*
X019295Y020899D01*
X019262Y020981D01*
X019107Y021136D01*
X019025Y021169D01*
X019107Y021203D01*
X019262Y021358D01*
X019295Y021439D01*
X019329Y021358D01*
X019484Y021203D01*
X019565Y021169D01*
X019453Y021105D02*
X019137Y021105D01*
X019167Y021264D02*
X019423Y021264D01*
X019302Y021422D02*
X019288Y021422D01*
X019276Y020947D02*
X019315Y020947D01*
X018565Y021169D02*
X018484Y021136D01*
X018329Y020981D01*
X018295Y020899D01*
X018262Y020981D01*
X018107Y021136D01*
X018025Y021169D01*
X018107Y021203D01*
X018262Y021358D01*
X018295Y021439D01*
X018329Y021358D01*
X018484Y021203D01*
X018565Y021169D01*
X018453Y021105D02*
X018137Y021105D01*
X018167Y021264D02*
X018423Y021264D01*
X018302Y021422D02*
X018288Y021422D01*
X018276Y020947D02*
X018315Y020947D01*
X017565Y021169D02*
X017484Y021136D01*
X017329Y020981D01*
X017295Y020899D01*
X017262Y020981D01*
X017107Y021136D01*
X017025Y021169D01*
X017107Y021203D01*
X017262Y021358D01*
X017295Y021439D01*
X017329Y021358D01*
X017484Y021203D01*
X017565Y021169D01*
X017453Y021105D02*
X017137Y021105D01*
X017167Y021264D02*
X017423Y021264D01*
X017302Y021422D02*
X017288Y021422D01*
X017276Y020947D02*
X017315Y020947D01*
X016565Y021169D02*
X016484Y021136D01*
X016329Y020981D01*
X016295Y020899D01*
X016262Y020981D01*
X016107Y021136D01*
X016025Y021169D01*
X016107Y021203D01*
X016262Y021358D01*
X016295Y021439D01*
X016329Y021358D01*
X016484Y021203D01*
X016565Y021169D01*
X016453Y021105D02*
X016137Y021105D01*
X016167Y021264D02*
X016423Y021264D01*
X016302Y021422D02*
X016288Y021422D01*
X016276Y020947D02*
X016315Y020947D01*
X015565Y021169D02*
X015484Y021136D01*
X015329Y020981D01*
X015295Y020899D01*
X015262Y020981D01*
X015107Y021136D01*
X015025Y021169D01*
X015107Y021203D01*
X015262Y021358D01*
X015295Y021439D01*
X015329Y021358D01*
X015484Y021203D01*
X015565Y021169D01*
X015453Y021105D02*
X015137Y021105D01*
X015167Y021264D02*
X015423Y021264D01*
X015302Y021422D02*
X015288Y021422D01*
X015276Y020947D02*
X015315Y020947D01*
X015295Y021899D02*
X015262Y021981D01*
X015222Y022020D01*
X015368Y022020D01*
X015329Y021981D01*
X015295Y021899D01*
X014368Y022020D02*
X014329Y021981D01*
X014295Y021899D01*
X014262Y021981D01*
X014222Y022020D01*
X014368Y022020D01*
X013368Y022020D02*
X013329Y021981D01*
X013295Y021899D01*
X013262Y021981D01*
X013222Y022020D01*
X013368Y022020D01*
X012368Y022020D02*
X012329Y021981D01*
X012295Y021899D01*
X012262Y021981D01*
X012222Y022020D01*
X012368Y022020D01*
X011368Y022020D02*
X011329Y021981D01*
X011295Y021899D01*
X011262Y021981D01*
X011222Y022020D01*
X011368Y022020D01*
X010368Y022020D02*
X010329Y021981D01*
X010295Y021899D01*
X010262Y021981D01*
X010222Y022020D01*
X010368Y022020D01*
X009368Y022020D02*
X009329Y021981D01*
X009295Y021899D01*
X009262Y021981D01*
X009222Y022020D01*
X009368Y022020D01*
X008368Y022020D02*
X008329Y021981D01*
X008295Y021899D01*
X008262Y021981D01*
X008222Y022020D01*
X008368Y022020D01*
X007368Y022020D02*
X007329Y021981D01*
X007295Y021899D01*
X007262Y021981D01*
X007222Y022020D01*
X007368Y022020D01*
X007374Y020313D02*
X007216Y020313D01*
X006989Y020154D02*
X007602Y020154D01*
X007989Y020154D02*
X008602Y020154D01*
X008374Y020313D02*
X008216Y020313D01*
X008989Y020154D02*
X009602Y020154D01*
X009374Y020313D02*
X009216Y020313D01*
X009989Y020154D02*
X010602Y020154D01*
X010374Y020313D02*
X010216Y020313D01*
X010989Y020154D02*
X011602Y020154D01*
X011374Y020313D02*
X011216Y020313D01*
X011989Y020154D02*
X012602Y020154D01*
X012374Y020313D02*
X012216Y020313D01*
X012989Y020154D02*
X013602Y020154D01*
X013374Y020313D02*
X013216Y020313D01*
X015143Y019203D02*
X007533Y019203D01*
X007570Y019045D02*
X015104Y019045D01*
X015104Y018886D02*
X007570Y018886D01*
X007504Y018728D02*
X015169Y018728D01*
X015296Y018569D02*
X008880Y018569D01*
X008933Y018411D02*
X015238Y018411D01*
X015119Y018252D02*
X008933Y018252D01*
X008933Y018094D02*
X015061Y018094D01*
X015061Y017935D02*
X008933Y017935D01*
X008933Y017777D02*
X015105Y017777D01*
X015204Y017618D02*
X008933Y017618D01*
X008933Y017460D02*
X015243Y017460D01*
X015096Y017301D02*
X008933Y017301D01*
X007399Y017407D02*
X007323Y017483D01*
X007282Y017500D01*
X007323Y017517D01*
X007399Y017593D01*
X007399Y017407D01*
X007399Y017460D02*
X007347Y017460D01*
X007000Y017000D02*
X015585Y017000D01*
X015895Y016509D02*
X024018Y016509D01*
X024018Y016667D02*
X016062Y016667D01*
X015999Y016350D02*
X024018Y016350D01*
X024018Y016192D02*
X016081Y016192D01*
X016114Y016033D02*
X024018Y016033D01*
X024018Y015875D02*
X016109Y015875D01*
X016043Y015716D02*
X024018Y015716D01*
X024018Y015558D02*
X015908Y015558D01*
X015907Y015399D02*
X024017Y015399D01*
X024017Y015241D02*
X016017Y015241D01*
X016070Y015082D02*
X024017Y015082D01*
X024017Y014924D02*
X016070Y014924D01*
X016020Y014765D02*
X024017Y014765D01*
X024017Y014607D02*
X015913Y014607D01*
X015657Y014448D02*
X024017Y014448D01*
X023719Y017301D02*
X017433Y017301D01*
X017433Y017460D02*
X023720Y017460D01*
X023720Y017618D02*
X017433Y017618D01*
X017433Y017777D02*
X023720Y017777D01*
X023720Y017935D02*
X017433Y017935D01*
X017433Y018094D02*
X023720Y018094D01*
X023720Y018252D02*
X017433Y018252D01*
X017433Y018411D02*
X023720Y018411D01*
X023720Y018569D02*
X017380Y018569D01*
X015899Y017491D02*
X015899Y017486D01*
X015893Y017489D01*
X015899Y017491D01*
X015234Y019362D02*
X007445Y019362D01*
X007234Y019520D02*
X015450Y019520D01*
X016295Y021899D02*
X016262Y021981D01*
X016222Y022020D01*
X016368Y022020D01*
X016329Y021981D01*
X016295Y021899D01*
X017222Y022020D02*
X017262Y021981D01*
X017295Y021899D01*
X017329Y021981D01*
X017368Y022020D01*
X017222Y022020D01*
X018222Y022020D02*
X018262Y021981D01*
X018295Y021899D01*
X018329Y021981D01*
X018368Y022020D01*
X018222Y022020D01*
X019222Y022020D02*
X019262Y021981D01*
X019295Y021899D01*
X019329Y021981D01*
X019368Y022020D01*
X019222Y022020D01*
X020222Y022020D02*
X020262Y021981D01*
X020295Y021899D01*
X020329Y021981D01*
X020368Y022020D01*
X020222Y022020D01*
X021222Y022020D02*
X021262Y021981D01*
X021295Y021899D01*
X021329Y021981D01*
X021368Y022020D01*
X021222Y022020D01*
X014983Y015241D02*
X007517Y015241D01*
X007570Y015082D02*
X014930Y015082D01*
X014930Y014924D02*
X007570Y014924D01*
X007520Y014765D02*
X014980Y014765D01*
X015087Y014607D02*
X007413Y014607D01*
X007157Y014448D02*
X015343Y014448D01*
X014570Y009376D02*
X004780Y009376D01*
X004780Y009218D02*
X014473Y009218D01*
X014430Y009059D02*
X004780Y009059D01*
X004780Y008901D02*
X014430Y008901D01*
X014490Y008742D02*
X004780Y008742D01*
X004780Y008584D02*
X006967Y008584D01*
X006899Y008425D02*
X006881Y008425D01*
X006119Y008425D02*
X004780Y008425D01*
X004780Y008267D02*
X005993Y008267D01*
X005930Y008108D02*
X004780Y008108D01*
X004780Y007950D02*
X005930Y007950D01*
X005970Y007791D02*
X004780Y007791D01*
X004780Y007633D02*
X006061Y007633D01*
X006168Y007474D02*
X004780Y007474D01*
X004780Y007316D02*
X006014Y007316D01*
X005948Y007157D02*
X004780Y007157D01*
X004780Y006999D02*
X005930Y006999D01*
X005949Y006840D02*
X004780Y006840D01*
X004780Y006682D02*
X006015Y006682D01*
X006171Y006523D02*
X004780Y006523D01*
X004780Y006365D02*
X006058Y006365D01*
X006500Y007000D02*
X010000Y007000D01*
X011000Y008000D01*
X015000Y008000D01*
X014619Y008425D02*
X008433Y008425D01*
X008433Y008267D02*
X010912Y008267D01*
X010712Y008108D02*
X008433Y008108D01*
X008433Y007950D02*
X010554Y007950D01*
X010395Y007791D02*
X008433Y007791D01*
X008433Y007633D02*
X010237Y007633D01*
X010078Y007474D02*
X008433Y007474D01*
X008433Y007316D02*
X009920Y007316D01*
X010553Y007157D02*
X014448Y007157D01*
X014430Y006999D02*
X010394Y006999D01*
X010236Y006840D02*
X014449Y006840D01*
X014515Y006682D02*
X006985Y006682D01*
X006899Y007407D02*
X006823Y007483D01*
X006782Y007500D01*
X006823Y007517D01*
X006899Y007593D01*
X006899Y007407D01*
X006899Y007474D02*
X006832Y007474D01*
X008366Y008584D02*
X014610Y008584D01*
X014561Y007633D02*
X011028Y007633D01*
X010870Y007474D02*
X014668Y007474D01*
X014514Y007316D02*
X010711Y007316D01*
X006156Y004463D02*
X000980Y004463D01*
X000980Y004621D02*
X006073Y004621D01*
X006009Y004304D02*
X000980Y004304D01*
X000980Y004146D02*
X005943Y004146D01*
X005930Y003987D02*
X000980Y003987D01*
X000980Y003829D02*
X005954Y003829D01*
X006024Y003670D02*
X000980Y003670D01*
X000980Y003512D02*
X006190Y003512D01*
X006047Y003353D02*
X000980Y003353D01*
X000980Y003195D02*
X005964Y003195D01*
X005930Y003036D02*
X000980Y003036D01*
X000980Y002878D02*
X005934Y002878D01*
X005999Y002719D02*
X000980Y002719D01*
X000980Y002561D02*
X006133Y002561D01*
X002825Y004780D02*
X000980Y004780D01*
X000980Y004938D02*
X002723Y004938D01*
X002720Y005097D02*
X000980Y005097D01*
X000980Y005255D02*
X002720Y005255D01*
X002720Y005414D02*
X000980Y005414D01*
X000980Y005572D02*
X002720Y005572D01*
X005000Y015000D02*
X004500Y015500D01*
X004838Y015558D02*
X006636Y015558D01*
X006593Y015399D02*
X004997Y015399D01*
X006280Y016350D02*
X006544Y016350D01*
X006697Y016509D02*
X006280Y016509D01*
X006280Y016667D02*
X006527Y016667D01*
X006455Y016826D02*
X006280Y016826D01*
X006280Y016984D02*
X006430Y016984D01*
X006442Y017143D02*
X006280Y017143D01*
X006280Y017301D02*
X006508Y017301D01*
X006653Y017460D02*
X006280Y017460D01*
X006280Y017618D02*
X006576Y017618D01*
X006476Y017777D02*
X006280Y017777D01*
X006280Y017935D02*
X006430Y017935D01*
X006430Y018094D02*
X006280Y018094D01*
X006280Y018252D02*
X006487Y018252D01*
X006604Y018411D02*
X006280Y018411D01*
X006280Y018569D02*
X006625Y018569D01*
X006496Y018728D02*
X006280Y018728D01*
X006280Y018886D02*
X006430Y018886D01*
X006430Y019045D02*
X006280Y019045D01*
X006280Y019203D02*
X006467Y019203D01*
X006555Y019362D02*
X006280Y019362D01*
X006280Y019520D02*
X006766Y019520D01*
X007375Y018569D02*
X007452Y018569D01*
X007399Y018411D02*
X007396Y018411D01*
D15*
X003000Y011000D03*
X024000Y019000D03*
M02*
