G75*
%MOIN*%
%OFA0B0*%
%FSLAX24Y24*%
%IPPOS*%
%LPD*%
%AMOC8*
5,1,8,0,0,1.08239X$1,22.5*
%
%ADD10C,0.0820*%
%ADD11R,0.0780X0.0780*%
%ADD12C,0.0780*%
%ADD13C,0.0476*%
D10*
X006500Y003000D03*
X006500Y004000D03*
X006500Y005000D03*
X006500Y006000D03*
X006500Y007000D03*
X006500Y008000D03*
X015000Y008000D03*
X015000Y009000D03*
X015000Y007000D03*
X015000Y006000D03*
X015000Y005000D03*
X015000Y004000D03*
X015500Y015000D03*
X015544Y015999D03*
X015587Y016998D03*
X015631Y017997D03*
X015674Y018996D03*
X007000Y019000D03*
X007000Y018000D03*
X007000Y017000D03*
X007000Y016000D03*
X007000Y015000D03*
D11*
X003795Y020669D03*
D12*
X004795Y020669D03*
X005795Y020669D03*
X006795Y020669D03*
X007795Y020669D03*
X008795Y020669D03*
X009795Y020669D03*
X010795Y020669D03*
X011795Y020669D03*
X012795Y020669D03*
X013795Y020669D03*
X014795Y020669D03*
X015795Y020669D03*
X016795Y020669D03*
X017795Y020669D03*
X018795Y020669D03*
X019795Y020669D03*
X020795Y020669D03*
X021795Y020669D03*
X022795Y020669D03*
X022795Y021669D03*
X021795Y021669D03*
X020795Y021669D03*
X019795Y021669D03*
X018795Y021669D03*
X017795Y021669D03*
X016795Y021669D03*
X015795Y021669D03*
X014795Y021669D03*
X013795Y021669D03*
X012795Y021669D03*
X011795Y021669D03*
X010795Y021669D03*
X009795Y021669D03*
X008795Y021669D03*
X007795Y021669D03*
X006795Y021669D03*
X005795Y021669D03*
X004795Y021669D03*
X003795Y021669D03*
D13*
X003000Y011000D03*
X024000Y019000D03*
M02*
